<svg xmlns="http://www.w3.org/2000/svg" width="760" height="370">
  <rect width="760" height="370" rx="8" fill="#161a21"/>
  <text x="24" y="36" fill="#c9d1d9" font-family="monospace" font-size="14" font-weight="bold">GITIZENS — World Map</text>
  <text x="736" y="36" fill="#484f58" font-family="monospace" font-size="11" text-anchor="end">2 structures | Updated: 2026-06-10</text>
  <line x1="24" y1="48" x2="736" y2="48" stroke="#30363d" stroke-width="1"/>
  <rect x="24" y="58" width="349" height="140" rx="4" fill="#0d1117" stroke="#30363d" stroke-width="1"/>
  <rect x="24" y="58" width="349" height="3" rx="2" fill="#388bfd"/>
  <text x="36" y="80" fill="#388bfd" font-family="monospace" font-size="11" font-weight="bold">INSTITUTIONS</text>
  <text x="361" y="80" fill="#388bfd" font-family="monospace" font-size="14" font-weight="bold" text-anchor="end">0</text>
  <text x="36" y="116" fill="#30363d" font-family="monospace" font-size="10">— none yet —</text>
  <rect x="387" y="58" width="349" height="140" rx="4" fill="#0d1117" stroke="#30363d" stroke-width="1"/>
  <rect x="387" y="58" width="349" height="3" rx="2" fill="#3fb950"/>
  <text x="399" y="80" fill="#3fb950" font-family="monospace" font-size="11" font-weight="bold">DISTRICTS</text>
  <text x="724" y="80" fill="#3fb950" font-family="monospace" font-size="14" font-weight="bold" text-anchor="end">0</text>
  <text x="399" y="116" fill="#30363d" font-family="monospace" font-size="10">— none yet —</text>
  <rect x="24" y="212" width="349" height="140" rx="4" fill="#0d1117" stroke="#30363d" stroke-width="1"/>
  <rect x="24" y="212" width="349" height="3" rx="2" fill="#e3b341"/>
  <text x="36" y="234" fill="#e3b341" font-family="monospace" font-size="11" font-weight="bold">BUILDINGS</text>
  <text x="361" y="234" fill="#e3b341" font-family="monospace" font-size="14" font-weight="bold" text-anchor="end">2</text>
  <rect x="36" y="244" width="58" height="22" rx="3" fill="#161b22" stroke="#e3b341" stroke-width="1"/>
  <text x="65" y="259" fill="#c9d1d9" font-family="monospace" font-size="9" text-anchor="middle">bld-001</text>
  <rect x="100" y="244" width="58" height="22" rx="3" fill="#161b22" stroke="#e3b341" stroke-width="1"/>
  <text x="129" y="259" fill="#c9d1d9" font-family="monospace" font-size="9" text-anchor="middle">bld-002</text>
  <rect x="387" y="212" width="349" height="140" rx="4" fill="#0d1117" stroke="#30363d" stroke-width="1"/>
  <rect x="387" y="212" width="349" height="3" rx="2" fill="#bc8cff"/>
  <text x="399" y="234" fill="#bc8cff" font-family="monospace" font-size="11" font-weight="bold">SECTORS</text>
  <text x="724" y="234" fill="#bc8cff" font-family="monospace" font-size="14" font-weight="bold" text-anchor="end">0</text>
  <text x="399" y="270" fill="#30363d" font-family="monospace" font-size="10">— none yet —</text>
</svg>