<svg xmlns="http://www.w3.org/2000/svg" width="760" height="370">
  <rect width="760" height="370" rx="8" fill="#161b22"/>
  <text x="24" y="36" fill="#c9d1d9" font-family="monospace" font-size="14" font-weight="bold">GITIZENS — World Map</text>
  <text x="736" y="36" fill="#484f58" font-family="monospace" font-size="11" text-anchor="end">7 structures | Updated: 2026-06-11</text>
  <line x1="24" y1="48" x2="736" y2="48" stroke="#30363d" stroke-width="1"/>
  <rect x="24" y="58" width="349" height="140" rx="4" fill="#0d1117" stroke="#30363d" stroke-width="1"/>
  <rect x="24" y="58" width="349" height="3" rx="2" fill="#388bfd"/>
  <text x="36" y="80" fill="#388bfd" font-family="monospace" font-size="11" font-weight="bold">INSTITUTIONS</text>
  <text x="361" y="80" fill="#388bfd" font-family="monospace" font-size="14" font-weight="bold" text-anchor="end">1</text>
  <rect x="36" y="90" width="58" height="30" rx="3" fill="#161b22" stroke="#388bfd" stroke-width="1"/>
  <text x="65" y="102" fill="#c9d1d9" font-family="monospace" font-size="8" text-anchor="middle">Manufactu…</text>
  <text x="65" y="114" fill="#484f58" font-family="monospace" font-size="7" text-anchor="middle">sec-001</text>
  <rect x="387" y="58" width="349" height="140" rx="4" fill="#0d1117" stroke="#30363d" stroke-width="1"/>
  <rect x="387" y="58" width="349" height="3" rx="2" fill="#3fb950"/>
  <text x="399" y="80" fill="#3fb950" font-family="monospace" font-size="11" font-weight="bold">DISTRICTS</text>
  <text x="724" y="80" fill="#3fb950" font-family="monospace" font-size="14" font-weight="bold" text-anchor="end">2</text>
  <rect x="399" y="90" width="58" height="30" rx="3" fill="#161b22" stroke="#3fb950" stroke-width="1"/>
  <text x="428" y="102" fill="#c9d1d9" font-family="monospace" font-size="8" text-anchor="middle">Manufactu…</text>
  <text x="428" y="114" fill="#484f58" font-family="monospace" font-size="7" text-anchor="middle">sec-001</text>
  <rect x="463" y="90" width="58" height="30" rx="3" fill="#161b22" stroke="#484f58" stroke-width="1"/>
  <text x="492" y="108" fill="#484f58" font-family="monospace" font-size="9" text-anchor="middle">+1 more</text>
  <rect x="24" y="212" width="349" height="140" rx="4" fill="#0d1117" stroke="#30363d" stroke-width="1"/>
  <rect x="24" y="212" width="349" height="3" rx="2" fill="#e3b341"/>
  <text x="36" y="234" fill="#e3b341" font-family="monospace" font-size="11" font-weight="bold">BUILDINGS</text>
  <text x="361" y="234" fill="#e3b341" font-family="monospace" font-size="14" font-weight="bold" text-anchor="end">3</text>
  <rect x="36" y="244" width="58" height="30" rx="3" fill="#161b22" stroke="#e3b341" stroke-width="1"/>
  <text x="65" y="256" fill="#c9d1d9" font-family="monospace" font-size="8" text-anchor="middle">Manufactu…</text>
  <text x="65" y="268" fill="#484f58" font-family="monospace" font-size="7" text-anchor="middle">sec-001</text>
  <rect x="100" y="244" width="58" height="30" rx="3" fill="#161b22" stroke="#484f58" stroke-width="1"/>
  <text x="129" y="262" fill="#484f58" font-family="monospace" font-size="9" text-anchor="middle">+2 more</text>
  <rect x="387" y="212" width="349" height="140" rx="4" fill="#0d1117" stroke="#30363d" stroke-width="1"/>
  <rect x="387" y="212" width="349" height="3" rx="2" fill="#bc8cff"/>
  <text x="399" y="234" fill="#bc8cff" font-family="monospace" font-size="11" font-weight="bold">SECTORS</text>
  <text x="724" y="234" fill="#bc8cff" font-family="monospace" font-size="14" font-weight="bold" text-anchor="end">1</text>
  <rect x="399" y="244" width="58" height="30" rx="3" fill="#161b22" stroke="#bc8cff" stroke-width="1"/>
  <text x="428" y="256" fill="#c9d1d9" font-family="monospace" font-size="8" text-anchor="middle">Manufactu…</text>
  <text x="428" y="268" fill="#484f58" font-family="monospace" font-size="7" text-anchor="middle">sec-001</text>
</svg>