<svg xmlns="http://www.w3.org/2000/svg" width="760" height="370">
  <rect width="760" height="370" rx="8" fill="#161b22"/>
  <text x="24" y="36" fill="#c9d1d9" font-family="monospace" font-size="14" font-weight="bold">GITIZENS — World Map</text>
  <text x="736" y="36" fill="#484f58" font-family="monospace" font-size="11" text-anchor="end">0 structures | Founded: 2026-06-10</text>
  <line x1="24" y1="48" x2="736" y2="48" stroke="#30363d" stroke-width="1"/>
  <rect x="24" y="58" width="349" height="140" rx="4" fill="#0d1117" stroke="#30363d" stroke-width="1"/>
  <rect x="24" y="58" width="349" height="3" rx="2" fill="#388bfd"/>
  <text x="36" y="80" fill="#388bfd" font-family="monospace" font-size="11" font-weight="bold">INSTITUTIONS</text>
  <text x="361" y="80" fill="#388bfd" font-family="monospace" font-size="14" font-weight="bold" text-anchor="end">0</text>
  <text x="185" y="135" fill="#484f58" font-family="monospace" font-size="10" text-anchor="middle">No institutions yet</text>
  <rect x="387" y="58" width="349" height="140" rx="4" fill="#0d1117" stroke="#30363d" stroke-width="1"/>
  <rect x="387" y="58" width="349" height="3" rx="2" fill="#3fb950"/>
  <text x="399" y="80" fill="#3fb950" font-family="monospace" font-size="11" font-weight="bold">DISTRICTS</text>
  <text x="724" y="80" fill="#3fb950" font-family="monospace" font-size="14" font-weight="bold" text-anchor="end">0</text>
  <text x="561" y="135" fill="#484f58" font-family="monospace" font-size="10" text-anchor="middle">No districts yet</text>
  <rect x="24" y="210" width="349" height="140" rx="4" fill="#0d1117" stroke="#30363d" stroke-width="1"/>
  <rect x="24" y="210" width="349" height="3" rx="2" fill="#e3b341"/>
  <text x="36" y="232" fill="#e3b341" font-family="monospace" font-size="11" font-weight="bold">BUILDINGS</text>
  <text x="361" y="232" fill="#e3b341" font-family="monospace" font-size="14" font-weight="bold" text-anchor="end">0</text>
  <text x="185" y="287" fill="#484f58" font-family="monospace" font-size="10" text-anchor="middle">No buildings yet</text>
  <rect x="387" y="210" width="349" height="140" rx="4" fill="#0d1117" stroke="#30363d" stroke-width="1"/>
  <rect x="387" y="210" width="349" height="3" rx="2" fill="#bc8cff"/>
  <text x="399" y="232" fill="#bc8cff" font-family="monospace" font-size="11" font-weight="bold">SECTORS</text>
  <text x="724" y="232" fill="#bc8cff" font-family="monospace" font-size="14" font-weight="bold" text-anchor="end">0</text>
  <text x="561" y="287" fill="#484f58" font-family="monospace" font-size="10" text-anchor="middle">No sectors yet</text>
</svg>
