<svg xmlns="http://www.w3.org/2000/svg" width="760" height="370">
  <rect width="760" height="370" rx="8" fill="#161b22"/>

  <text x="24" y="40" fill="#c9d1d9" font-family="monospace" font-size="20" font-weight="bold">GITIZENS</text>
  <text x="24" y="58" fill="#8b949e" font-family="monospace" font-size="12">Day 2 of Founding Era</text>

  <line x1="24" y1="70" x2="736" y2="70" stroke="#30363d" stroke-width="1"/>

  <text x="24"  y="90"  fill="#484f58" font-family="monospace" font-size="10">LAWS ENACTED</text>
  <text x="24"  y="116" fill="#c9d1d9" font-family="monospace" font-size="26" font-weight="bold">12</text>

  <text x="210" y="90"  fill="#484f58" font-family="monospace" font-size="10">STRUCTURES</text>
  <text x="210" y="116" fill="#c9d1d9" font-family="monospace" font-size="26" font-weight="bold">8</text>

  <text x="396" y="90"  fill="#484f58" font-family="monospace" font-size="10">TREASURY</text>
  <text x="396" y="116" fill="#e3b341" font-family="monospace" font-size="26" font-weight="bold">59</text>

  <text x="582" y="90"  fill="#484f58" font-family="monospace" font-size="10">PASS RATE</text>
  <text x="582" y="116" fill="#3fb950" font-family="monospace" font-size="26" font-weight="bold">100%</text>

  <line x1="24" y1="132" x2="736" y2="132" stroke="#30363d" stroke-width="1"/>

  <text x="24"  y="150" fill="#484f58" font-family="monospace" font-size="10">POLICY METRICS</text>
  <text x="700" y="150" fill="#3fb950" font-family="monospace" font-size="10" text-anchor="end">POLLUTION 0/100</text>

  <text x="24"  y="168" fill="#8b949e" font-family="monospace" font-size="10">EDU</text>
  <rect x="56"  y="158" width="170" height="12" rx="2" fill="#3fb950"/>
  <text x="230" y="168" fill="#3fb950" font-family="monospace" font-size="10">63</text>

  <text x="24"  y="186" fill="#8b949e" font-family="monospace" font-size="10">IND</text>
  <rect x="56"  y="176" width="108" height="12" rx="2" fill="#e3b341"/>
  <text x="168" y="186" fill="#e3b341" font-family="monospace" font-size="10">40</text>

  <text x="24"  y="204" fill="#8b949e" font-family="monospace" font-size="10">WEL</text>
  <rect x="56"  y="194" width="183" height="12" rx="2" fill="#3fb950"/>
  <text x="243" y="204" fill="#3fb950" font-family="monospace" font-size="10">68</text>

  <text x="400" y="168" fill="#8b949e" font-family="monospace" font-size="10">GRN</text>
  <rect x="432" y="158" width="84" height="12" rx="2" fill="#3fb950"/>
  <text x="520" y="168" fill="#3fb950" font-family="monospace" font-size="10">65</text>

  <text x="400" y="186" fill="#8b949e" font-family="monospace" font-size="10">DEF</text>
  <rect x="432" y="176" width="53" height="12" rx="2" fill="#e3b341"/>
  <text x="489" y="186" fill="#e3b341" font-family="monospace" font-size="10">41</text>

  <polygon points="660.0,170.5 671.9,179.1 667.3,193.1 652.7,193.1 648.1,179.1" fill="none" stroke="#30363d" stroke-width="0.5"/>
  <polygon points="660.0,158.0 683.8,175.3 674.7,203.2 645.3,203.2 636.2,175.3" fill="none" stroke="#30363d" stroke-width="0.5"/>
  <polygon points="660.0,145.5 695.7,171.4 682.0,213.3 638.0,213.3 624.3,171.4" fill="none" stroke="#30363d" stroke-width="0.5"/>
  <polygon points="660.0,133.0 707.6,167.5 689.4,223.5 630.6,223.5 612.4,167.5" fill="none" stroke="#30363d" stroke-width="0.5"/>
  <line x1="660.0" y1="183.0" x2="660.0" y2="133.0" stroke="#30363d" stroke-width="0.5"/>
  <line x1="660.0" y1="183.0" x2="707.6" y2="167.5" stroke="#30363d" stroke-width="0.5"/>
  <line x1="660.0" y1="183.0" x2="689.4" y2="223.5" stroke="#30363d" stroke-width="0.5"/>
  <line x1="660.0" y1="183.0" x2="630.6" y2="223.5" stroke="#30363d" stroke-width="0.5"/>
  <line x1="660.0" y1="183.0" x2="612.4" y2="167.5" stroke="#30363d" stroke-width="0.5"/>
  <polygon points="660.0,151.5 679.0,176.8 680.0,210.5 640.9,209.3 640.5,176.7" fill="rgba(56,139,253,0.14)" stroke="#388bfd" stroke-width="1.2"/>
  <circle cx="660.0" cy="151.5" r="2.2" fill="#388bfd"/>
  <circle cx="679.0" cy="176.8" r="2.2" fill="#bc8cff"/>
  <circle cx="680.0" cy="210.5" r="2.2" fill="#3fb950"/>
  <circle cx="640.9" cy="209.3" r="2.2" fill="#2dd4bf"/>
  <circle cx="640.5" cy="176.7" r="2.2" fill="#f0883e"/>
  <text x="660.0" y="124.0" dy="-0.2em" fill="#484f58" font-family="monospace" font-size="7" text-anchor="middle">EDU</text>
  <text x="716.1" y="164.8" dy="-0.2em" fill="#484f58" font-family="monospace" font-size="7" text-anchor="start">IND</text>
  <text x="694.7" y="230.7" dy="0.7em" fill="#484f58" font-family="monospace" font-size="7" text-anchor="start">WEL</text>
  <text x="625.3" y="230.7" dy="0.7em" fill="#484f58" font-family="monospace" font-size="7" text-anchor="end">GRN</text>
  <text x="603.9" y="164.8" dy="-0.2em" fill="#484f58" font-family="monospace" font-size="7" text-anchor="end">DEF</text>

  <line x1="24" y1="218" x2="736" y2="218" stroke="#30363d" stroke-width="1"/>

  <text x="24" y="238" fill="#8b949e" font-family="monospace" font-size="11">Passed  </text>
  <rect x="100" y="225" width="580" height="20" rx="3" fill="#3fb950"/>
  <text x="688" y="240" fill="#3fb950" font-family="monospace" font-size="11">12</text>

  <text x="24" y="274" fill="#8b949e" font-family="monospace" font-size="11">Rejected</text>
  <rect x="100" y="261" width="0" height="20" rx="3" fill="#f85149"/>
  <text x="108" y="276" fill="#f85149" font-family="monospace" font-size="11">0</text>

  <line x1="24" y1="296" x2="736" y2="296" stroke="#30363d" stroke-width="1"/>

  <text x="24"  y="314" fill="#484f58" font-family="monospace" font-size="10">POPULATION</text>
  <text x="280" y="314" fill="#484f58" font-family="monospace" font-size="10">POLLUTION</text>
  <text x="536" y="314" fill="#484f58" font-family="monospace" font-size="10">STABILITY</text>

  <text x="24"  y="334" fill="#c9d1d9" font-family="monospace" font-size="18" font-weight="bold">1,850</text>
  <text x="280" y="334" fill="#3fb950" font-family="monospace" font-size="18" font-weight="bold">0/100</text>
  <text x="536" y="334" fill="#e3b341" font-family="monospace" font-size="18" font-weight="bold">53/100</text>

  <text x="24" y="358" fill="#484f58" font-family="monospace" font-size="10">Total proposals: 12 | Updated: 2026-06-11</text>
</svg>