<svg xmlns="http://www.w3.org/2000/svg" width="760" height="370">
  <rect width="760" height="370" rx="8" fill="#161b22"/>

  <text x="24" y="40" fill="#c9d1d9" font-family="monospace" font-size="20" font-weight="bold">GITIZENS</text>
  <text x="24" y="58" fill="#8b949e" font-family="monospace" font-size="12">Day 1 of Founding Era</text>

  <line x1="24" y1="70" x2="736" y2="70" stroke="#30363d" stroke-width="1"/>

  <text x="24"  y="90"  fill="#484f58" font-family="monospace" font-size="10">LAWS ENACTED</text>
  <text x="24"  y="116" fill="#c9d1d9" font-family="monospace" font-size="26" font-weight="bold">6</text>

  <text x="210" y="90"  fill="#484f58" font-family="monospace" font-size="10">STRUCTURES</text>
  <text x="210" y="116" fill="#c9d1d9" font-family="monospace" font-size="26" font-weight="bold">4</text>

  <text x="396" y="90"  fill="#484f58" font-family="monospace" font-size="10">TREASURY</text>
  <text x="396" y="116" fill="#e3b341" font-family="monospace" font-size="26" font-weight="bold">516</text>

  <text x="582" y="90"  fill="#484f58" font-family="monospace" font-size="10">PASS RATE</text>
  <text x="582" y="116" fill="#3fb950" font-family="monospace" font-size="26" font-weight="bold">100%</text>

  <line x1="24" y1="132" x2="736" y2="132" stroke="#30363d" stroke-width="1"/>

  <text x="24"  y="150" fill="#484f58" font-family="monospace" font-size="10">POLICY METRICS</text>
  <text x="700" y="150" fill="#3fb950" font-family="monospace" font-size="10" text-anchor="end">POLLUTION 5/100</text>

  <text x="24"  y="168" fill="#8b949e" font-family="monospace" font-size="10">EDU</text>
  <rect x="56"  y="158" width="77" height="12" rx="2" fill="#e3b341"/>
  <text x="137" y="168" fill="#e3b341" font-family="monospace" font-size="10">55</text>

  <text x="24"  y="186" fill="#8b949e" font-family="monospace" font-size="10">IND</text>
  <rect x="56"  y="176" width="28" height="12" rx="2" fill="#484f58"/>
  <text x="88" y="186" fill="#484f58" font-family="monospace" font-size="10">20</text>

  <text x="24"  y="204" fill="#8b949e" font-family="monospace" font-size="10">WEL</text>
  <rect x="56"  y="194" width="77" height="12" rx="2" fill="#e3b341"/>
  <text x="137" y="204" fill="#e3b341" font-family="monospace" font-size="10">55</text>

  <text x="400" y="168" fill="#8b949e" font-family="monospace" font-size="10">GRN</text>
  <rect x="432" y="158" width="70" height="12" rx="2" fill="#e3b341"/>
  <text x="506" y="168" fill="#e3b341" font-family="monospace" font-size="10">50</text>

  <text x="400" y="186" fill="#8b949e" font-family="monospace" font-size="10">DEF</text>
  <rect x="432" y="176" width="28" height="12" rx="2" fill="#484f58"/>
  <text x="464" y="186" fill="#484f58" font-family="monospace" font-size="10">20</text>

  <line x1="24" y1="218" x2="736" y2="218" stroke="#30363d" stroke-width="1"/>

  <text x="24" y="238" fill="#8b949e" font-family="monospace" font-size="11">Passed  </text>
  <rect x="100" y="225" width="580" height="20" rx="3" fill="#3fb950"/>
  <text x="688" y="240" fill="#3fb950" font-family="monospace" font-size="11">6</text>

  <text x="24" y="274" fill="#8b949e" font-family="monospace" font-size="11">Rejected</text>
  <rect x="100" y="261" width="0" height="20" rx="3" fill="#f85149"/>
  <text x="108" y="276" fill="#f85149" font-family="monospace" font-size="11">0</text>

  <line x1="24" y1="296" x2="736" y2="296" stroke="#30363d" stroke-width="1"/>

  <text x="24"  y="314" fill="#484f58" font-family="monospace" font-size="10">POPULATION</text>
  <text x="280" y="314" fill="#484f58" font-family="monospace" font-size="10">POLLUTION</text>
  <text x="536" y="314" fill="#484f58" font-family="monospace" font-size="10">STABILITY</text>

  <text x="24"  y="334" fill="#c9d1d9" font-family="monospace" font-size="18" font-weight="bold">1,150</text>
  <text x="280" y="334" fill="#3fb950" font-family="monospace" font-size="18" font-weight="bold">5/100</text>
  <text x="536" y="334" fill="#3fb950" font-family="monospace" font-size="18" font-weight="bold">66/100</text>

  <text x="24" y="358" fill="#484f58" font-family="monospace" font-size="10">Total proposals: 6 | Updated: 2026-06-10</text>
</svg>